<svg xmlns="http://www.w3.org/2000/svg" width="512" height="512" viewBox="0 0 512 512" x="0" y="0">
  <path dx="0" dy="0" path="M0.8359754424395336,187.33386165138282 C-0.7683559434969801,73.759411568758 459.1017657117308,72.60701326400569 459.16410044243946,187.33386165138282" transform="matrix(3.9783933222251484, 0, 0, 3.9783933222251484, -659.0261084947055, 17.211875895341905)" x="0" y="0" fill="rgba(0, 84, 255, 0.8992537313432836)" d="M 208.73504160236024 81.52058857580155L 208.73278178423718 76.39058907353822Q 208.73116951633648 72.7305894286486  209.50991839124796 69.89024610612152Q 210.28867167126302 67.0599027826242  211.6777244391346 64.90929068183333Q 213.06678161210982 62.768678580072184  214.97610304084537 61.22783735471145Q 216.8754244705512 59.687000534454256  219.07493088549882 58.5660315203401L 219.07493088549882 58.5660315203401L 219.07475908646023 58.17603155817973Q 217.46437159355725 57.29674086523361  215.82379027900865 55.97746343028901Q 214.1932089634898 54.658181590240865  212.87235890657655 52.72876325116761Q 211.55150884966326 50.799344912094355  210.72035919816622 48.18971078892377Q 209.88920954666915 45.580076665753175  209.88772502677153 42.21007699272638L 209.88772502677153 42.21007699272638L 209.88514363608905 36.35007756129108Q 209.88335956914977 32.30007795424107  210.8620467532066 29.319646543226387Q 211.8307339382336 26.33921953731525  213.41980871221807 24.23851932960206Q 215.00888348620254 22.13781912188886  217.10831502409224 20.84689417530443Q 219.2077421568784 19.545969229690233  221.42742036892417 18.814991367529334Q 223.64709858096992 18.084013505368425  225.86698823798625 17.833035596635664Q 228.08688230010617 17.592057686932662  229.94688211964026 17.591238337671665L 229.94688211964026 17.591238337671665Q 231.84688193529334 17.590401367996453  234.0469874443243 17.8294322219287Q 236.2470973584588 18.0784630748907  238.48741871368296 18.80747626086664Q 240.7377400679368 19.536485041739013  242.80831253055766 20.8355730591713Q 244.88888058710475 22.12465667247026  246.49979669243416 24.203947248986747Q 248.11070839266006 26.27323782647349  249.09202101843488 29.252805837191644Q 250.07333364420973 32.232373847909784  250.07511771114898 36.28237345495978L 250.07511771114898 36.28237345495978L 250.07769910183148 42.1423728863951Q 250.0791836217291 45.512372559421884  249.2503334342871 48.12273792978241Q 248.4214832468451 50.73310330014293  247.10233355990357 52.66368458655437Q 245.78318387296204 54.594265872965806  244.14376550575167 55.91498818187603Q 242.51434713757098 57.2357060856827  240.90473494289347 58.11641522197312L 240.90473494289347 58.11641522197312L 240.90490674193208 58.506415184133495Q 243.14539989619476 59.6254283322698  245.02607809973563 61.16460002338367Q 246.9067563032765 62.70377171449754  248.29769886057264 64.84315919747073Q 249.6886458229724 66.99254667947368  250.47989679573215 69.83219840074281Q 251.26114336435862 72.66185452808574  251.26275563225929 76.32185417297536L 251.26275563225929 76.32185417297536L 251.26501545038235 81.4518536752387Q 251.2669052398069 85.74185325900278  250.3883281736365 88.97224059472575Q 249.50974670236255 92.19262793141898  247.97077764601212 94.53330609032847Q 246.4318129947653 96.88398424826772  244.3824783643025 98.39488714798897Q 242.33314373383976 99.90579004771018  239.96354482821167 100.81683396895995Q 237.6039415165098 101.71787348607643  235.0341047546947 102.08900556179061Q 232.47426358680585 102.45013323337149  229.9342638332486 102.45125212967413L 229.9342638332486 102.45125212967413Q 227.3942640796913 102.45237102597679  224.8541057424061 102.09348995720833Q 222.3139430000173 101.7246088894101  219.94355558085306 100.84565298433408Q 217.58316816071863 99.96669267415449  215.53248997367194 98.42759586980104Q 213.4718161926991 96.89850346958087  211.99079435227117 94.57915565000413Q 210.4997725128135 92.25981223553092  209.61834974974738 89.03020019803338Q 208.7369313917848 85.81058815956563  208.73504160236024 81.52058857580155L 208.73504160236024 81.52058857580155ZM 229.37294758954533 54.061494700290844L 230.54294747602643 54.06097930317505Q 231.96294733825138 54.06035377847042  233.21274458220705 53.59980318515756Q 234.45254182713296 53.139256996948255  235.38204396019842 52.00884743195566Q 236.31155049836744 50.88843786599281  236.84071347726913 48.98820457985138Q 237.37987205009705 47.077966889576636  237.37860338027355 44.19796716900774L 237.37860338027355 44.19796716900774L 237.37557266902857 37.31796783653761Q 237.37329082538773 32.13796833912552  235.6421060203845 29.448730683036747Q 233.90092562145503 26.76949743108126  229.95092600470258 26.77123744698499L 229.95092600470258 26.77123744698499Q 225.99092638892034 26.772981867992275  224.31212914519202 29.5037216605119Q 222.62333630753747 32.244465857164826  222.62561374607475 37.41446535554717L 222.62561374607475 37.41446535554717L 222.6286268369055 44.25446469189829Q 222.62985145569345 47.03446442216965  223.10067956955996 48.9142571998962Q 223.5615076843967 50.79405438272631  224.44201418592368 51.94366662203518Q 225.3225206874506 53.093278861344054  226.56273641721415 53.5827325809613Q 227.81294774090387 54.062181896445225  229.37294758954533 54.061494700290844L 229.37294758954533 54.061494700290844ZM 221.57144579206334 73.35493321456002L 221.5754896771257 82.53493232387336Q 221.57688609495224 85.7049320163051  222.2877802620861 87.73461905699264Q 222.99867442922 89.7643060976802  224.13917650041697 90.90380380526693Q 225.28968297574727 92.05329710677985  226.79987665379633 92.49263189345237Q 228.32007033087515 92.93196227502135  229.93007017466542 92.9312530533492L 229.93007017466542 92.9312530533492Q 231.54007001845565 92.93054383167704  233.07987604448127 92.48986548842062Q 234.61968207050688 92.04918714516421  235.78916655987223 90.8786718615673Q 236.95865104923752 89.7081565779704  237.6877567423881 87.67783520237113Q 238.42686683967196 85.657509420698  238.42546601674186 82.47750972923653L 238.42546601674186 82.47750972923653L 238.42142213167952 73.29751061992319Q 238.42021953840936 70.5675108848006  237.84936940872757 68.63776216296083Q 237.2885192780755 66.7080090360175  236.26797314420003 65.46845847689059Q 235.23742260619122 64.21891232383749  233.7771760620483 63.65955552329015Q 232.30692951887553 63.10020312784639  230.546929689639 63.10097842607185L 230.546929689639 63.10097842607185L 229.32692980800914 63.101515848705404Q 225.76693015341704 63.10308406557054  223.66801401264314 65.56400889863608Q 221.56910227697276 68.03493373073138  221.57144579206334 73.35493321456002L 221.57144579206334 73.35493321456002Z"></path>
</svg>